<?xml version="1.0" encoding="UTF-8"?>
<svg width="1600" height="900" viewBox="0 0 1600 900" fill="none" xmlns="http://www.w3.org/2000/svg">
  <defs>
    <linearGradient id="bg" x1="180" y1="90" x2="1410" y2="810" gradientUnits="userSpaceOnUse">
      <stop stop-color="#1E3A8A"/>
      <stop offset="0.54" stop-color="#2563EB"/>
      <stop offset="1" stop-color="#38BDF8"/>
    </linearGradient>
    <radialGradient id="glow" cx="0" cy="0" r="1" gradientUnits="userSpaceOnUse" gradientTransform="translate(1220 170) rotate(135) scale(620 360)">
      <stop stop-color="#FFFFFF" stop-opacity="0.68"/>
      <stop offset="1" stop-color="#FFFFFF" stop-opacity="0"/>
    </radialGradient>
  </defs>
  <rect width="1600" height="900" fill="url(#bg)"/>
  <rect width="1600" height="900" fill="url(#glow)"/>

  <g opacity="0.13" stroke="#E0F2FE">
    <path d="M0 120H1600"/><path d="M0 300H1600"/><path d="M0 480H1600"/><path d="M0 660H1600"/>
    <path d="M180 0V900"/><path d="M500 0V900"/><path d="M820 0V900"/><path d="M1140 0V900"/><path d="M1460 0V900"/>
  </g>
  <rect x="96" y="644" width="1408" height="112" rx="30" fill="#0F172A" fill-opacity="0.82"/>
  <rect x="250" y="280" width="1100" height="250" rx="58" fill="#0F172A" fill-opacity="0.72" stroke="#93C5FD" stroke-opacity="0.35" stroke-width="8"/>
  <rect x="355" y="350" width="520" height="110" rx="55" fill="#E2E8F0" fill-opacity="0.95"/>
  <rect x="370" y="365" width="490" height="80" rx="40" fill="#7DD3FC" fill-opacity="0.3"/>
  <rect x="915" y="328" width="120" height="160" rx="40" fill="#BFDBFE" fill-opacity="0.92"/>
  <rect x="1060" y="328" width="120" height="160" rx="40" fill="#DBEAFE" fill-opacity="0.86"/>
  <circle cx="975" cy="406" r="30" fill="#2563EB"/>
  <circle cx="1120" cy="406" r="30" fill="#1D4ED8"/>
  <path d="M870 405C918 356 997 350 1055 388" stroke="#7DD3FC" stroke-width="24" stroke-linecap="round"/>
  <path d="M867 404C916 458 1014 470 1078 431" stroke="#BAE6FD" stroke-width="24" stroke-linecap="round"/>
  <path d="M355 240C438 155 595 150 694 225" stroke="#E0F2FE" stroke-opacity="0.65" stroke-width="26" stroke-linecap="round"/>
  <path d="M365 247C428 338 433 446 376 543" stroke="#E0F2FE" stroke-opacity="0.52" stroke-width="18" stroke-linecap="round"/>
</svg>